# xmcd CD database file
#
# Track frame offsets:
#	150
#	11267
#	25705
#	38200
#	54277
#	65795
#	81915
#	93025
#	105885
#	116192
#	135437
#	147170
#
# Disc length: 2181 seconds
#
# Revision: 3
# Processed by: cddbd v1.4PL0 Copyright (c) Steve Scherf et al.
# Submitted via: CDex 1.50
#
DISCID=8e08830c
DTITLE=Front Range - One Beautiful Day
DYEAR=1995
DGENRE=Bluegrass
TTITLE0=I Am The Way
TTITLE1=Were You There
TTITLE2=Judge Not Your Brother
TTITLE3=A Father's Prayer
TTITLE4=Will He Wait A Little Longer?
TTITLE5=My Heavenly Home
TTITLE6=Sing Praises To The King
TTITLE7=Create In Me A Clean Heart
TTITLE8=He's Coming Back
TTITLE9=I've Just Seen The Rock Of Ages
TTITLE10=Weeds In The Wheat
TTITLE11=One Beautiful Day
EXTD=YEAR: 1995
EXTT0=
EXTT1=
EXTT2=
EXTT3=
EXTT4=
EXTT5=
EXTT6=
EXTT7=
EXTT8=
EXTT9=
EXTT10=
EXTT11=
PLAYORDER=
